<svg xmlns="http://www.w3.org/2000/svg" version="1.1" xmlns:xlink="http://www.w3.org/1999/xlink" xmlns:svgjs="http://svgjs.dev/svgjs" width="2000" height="2000" viewBox="0 0 2000 2000"><g transform="matrix(1,0,0,1,-0.28443113772425477,-0.28443113772459583)"><svg viewBox="0 0 334 334" data-background-color="#fdfffd" preserveAspectRatio="xMidYMid meet" height="2000" width="2000" xmlns="http://www.w3.org/2000/svg" xmlns:xlink="http://www.w3.org/1999/xlink"><g id="tight-bounds" transform="matrix(1,0,0,1,0.04749999999998522,0.04750000000001364)"><svg viewBox="0 0 333.90454557049503 333.90454557049503" height="333.90454557049503" width="333.90454557049503"><g><svg></svg></g><g><svg viewBox="0 0 333.90454557049503 333.90454557049503" height="333.90454557049503" width="333.90454557049503"><g><path d="M0 166.952c0-92.205 74.747-166.952 166.952-166.952 92.205 0 166.952 74.747 166.953 166.952 0 92.205-74.747 166.952-166.953 166.953-92.205 0-166.952-74.747-166.952-166.953zM166.952 316.63c82.665 0 149.677-67.013 149.678-149.678 0-82.665-67.013-149.677-149.678-149.677-82.665 0-149.677 67.013-149.677 149.677 0 82.665 67.013 149.677 149.677 149.678z" data-fill-palette-color="tertiary" fill="#0094fd" stroke="transparent"></path><ellipse rx="160.27418187383762" ry="160.27418187383762" cx="166.95227278524752" cy="166.95227278524752" fill="#0094fd" stroke="transparent" stroke-width="0" fill-opacity="1" data-fill-palette-color="tertiary"></ellipse></g><g transform="matrix(1,0,0,1,100.18047327178131,71.17305217166896)"><svg viewBox="0 0 133.5435990269324 191.55844122715712" height="191.55844122715712" width="133.5435990269324"><g><svg viewBox="0 0 133.5435990269324 191.55844122715712" height="191.55844122715712" width="133.5435990269324"><g><svg viewBox="0 0 133.5435990269324 191.55844122715712" height="191.55844122715712" width="133.5435990269324"><g><svg viewBox="0 0 133.5435990269324 191.55844122715712" height="191.55844122715712" width="133.5435990269324"><g id="textblocktransform"><svg viewBox="0 0 133.5435990269324 191.55844122715712" height="191.55844122715712" width="133.5435990269324" id="textblock"><g><svg viewBox="0 0 133.5435990269324 191.55844122715712" height="191.55844122715712" width="133.5435990269324"><g transform="matrix(1,0,0,1,0,0)"><svg width="133.5435990269324" viewBox="5 -35 24.4 35" height="191.55844122715712" data-palette-color="#ffffff"><path d="M5 0L5-35 23.5-35Q24.7-35 25.9-34L25.9-34 27.1-33Q28.3-32 28.3-30.5L28.3-30.5 28.3-18.8Q28.3-17.25 27.05-16.2L27.05-16.2 25.8-15.15Q24.7-14.25 23.5-14.25L23.5-14.25 20.7-14.25 25.85-6.25Q26.4-5.4 26.63-5.18 26.85-4.95 27.65-4.5L27.65-4.5 28.2-4.2Q29.1-3.7 29.25-3.4 29.4-3.1 29.4-1.95L29.4-1.95 29.4 0 28.15 0Q27.25 0 26.93-0.1 26.6-0.2 25.8-0.75L25.8-0.75 24.85-1.4Q23.75-2.15 23.05-3.35L23.05-3.35 16.4-14 9.2-14 9.2 0 5 0ZM21.65-31.5L9.2-31.5 9.2-17.5 21.65-17.5Q22.55-17.5 22.8-17.57 23.05-17.65 23.5-18 23.95-18.35 24.03-18.57 24.1-18.8 24.1-19.55L24.1-19.55 24.1-29.45Q24.1-30.2 24.03-30.43 23.95-30.65 23.5-31 23.05-31.35 22.8-31.43 22.55-31.5 21.65-31.5L21.65-31.5Z" opacity="1" transform="matrix(1,0,0,1,0,0)" fill="#ffffff" class="wordmark-text-0" data-fill-palette-color="quaternary" id="text-0"></path></svg></g></svg></g></svg></g></svg></g><g></g></svg></g></svg></g></svg></g></svg></g><defs></defs></svg><rect width="333.90454557049503" height="333.90454557049503" fill="none" stroke="none" visibility="hidden"></rect></g></svg></g></svg>